<svg xmlns="http://www.w3.org/2000/svg" width="400" height="174.5">
  <g fill-rule="evenodd">
    <path fill="#0c64ac" d="M29.5 12.3c0 10.1 0 12.3.2 12.5l65 .1h64.5V12.4l.1-12.4H29.4v12.3M356 38.7l-.2.6-.2.2c-.2 0-.3.4-.3 1s.1.9.3 1c.2 0 .2.3.2.7 0 .9.2 1.3.5 1.3.2 0 .2.2.2 1s0 .9.4.9c.3 0 .3 0 .3 1.3 0 1.2 0 1.3.4 1.4.3.1.3.3.3 1.7s0 1.6.4 1.6c.3.1.3.3.3 7 0 7 0 7-.3 7s-.4.2-.4 1.3c0 1.2 0 1.3-.3 1.4-.3 0-.4.3-.4 1 0 .8 0 1-.2 1-.3 0-.4.6-.5 1.4 0 .4 0 .6-.3.6s-.4.3-.4.6 0 .6-.2.7c-.2 0-.3.3-.3.7 0 .5 0 .6-.3.6-.2 0-.4.1-.4.3 0 .2-.1.4-.3.5-.2.1-.4.4-.4.7 0 .2-.1.4-.3.5-.2 0-.4.2-.4.3 0 .2-.1.3-.3.4-.2 0-.4.2-.4.3 0 .2 0 .3-.2.3s-.3.2-.3.4-.1.3-.3.3c-.3 0-.4.1-.4.4 0 .2-.1.3-.3.3l-.4.2c0 .2-.1.3-.3.4-.2 0-.4.2-.4.3 0 .2-.1.3-.5.3s-.6.1-.7.4c0 .2-.2.3-.5.3-.4 0-.6.2-.7.4-.2.2-.4.3-.8.3s-.6.1-.7.4c0 .3-.2.3-1 .3-.6 0-.9.1-1 .3-.1.4-6.6.4-6.8 0 0-.2-.4-.3-1.3-.3-1 0-1.2 0-1.3-.3 0-.3-.2-.4-1-.4s-1 0-1-.3 0-.4-.6-.4c-.4 0-.6 0-.6-.3-.1-.3-.3-.4-.8-.4-.4 0-.6 0-.6-.2s-.1-.4-.3-.4a1 1 0 0 1-.4-.4l-.7-.2c-.3 0-.5 0-.5-.3l-.4-.4c-.2 0-.5-.3-.5-.4-.1-.2-.3-.3-.7-.3-.4 0-.5 0-.5-.3s-.1-.4-.3-.4c-.2 0-.4-.1-.4-.3 0-.1-.1-.3-.3-.3l-.8-.7c-.4-.4-.7-.6-1-.6-.4 0-.5 0-.5-.4 0-.2-.1-.3-.4-.3-.2 0-.3-.1-.3-.4 0-.1-.1-.3-.3-.3l-.2-.3c0-.2-.2-.6-.5-.9l-.4-.6-1.6-.1c-1.4 0-1.5 0-1.5.3s-.2.4-.4.4c-.3 0-.3 0-.3 1.5s0 1.6.3 1.6c.2 0 .4.1.4.4 0 .2 0 .3.3.3s.3.1.3.5.2.6.4.8l.4.4c0 .2.7 1 1 1 0 0 .2.1.2.4 0 .2.1.6.3.8.2.1.4.4.4.6 0 .1.1.2.3.2.3 0 .4.1.4.6 0 .4 0 .5.3.6.3 0 .4.2.4.7 0 .3 0 .6.2.7l.3.4c.1.2.3.3.4.3.2 0 .3.2.3.8 0 .6 0 .9.3 1 .2.1.4.4.4.6 0 .6.2 1 .4 1s.3.2.3.6c0 .5 0 .6.3.6s.4.1.4 1.2c0 1 0 1.3.2 1.3.2.1.3.4.3.9 0 1 .1 1.3.5 1.3.1 0 .2.3.2 1.6 0 1.6 0 1.7.4 1.7.3 0 .3.1.3 7.3s0 7.3-.3 7.4c-.4.1-.4.3-.4 1.7 0 1.2 0 1.6-.2 1.6-.3 0-.5.5-.5 1.7 0 .7 0 .9-.3.9-.2 0-.2.2-.2 1 0 1 0 1-.4 1-.3 0-.3.2-.3 1 0 .9 0 1-.4 1-.3 0-.3.1-.3.7s0 .7-.4.7c-.2 0-.3.1-.3.6 0 .4-.1.6-.4.7-.2 0-.3.2-.3.7 0 .4 0 .6-.3.6-.2 0-.2.2-.2.6 0 .5-.1.7-.4.7-.2 0-.3 0-.3.3 0 .2-.2.3-.4.4-.3 0-.3.2-.3.7 0 .5-.1.6-.4.6-.2 0-.3.2-.3.4s-.1.3-.3.3c-.2 0-.3.2-.4.4 0 .2-.2.4-.3.4-.1 0-.3.3-.3.6 0 .4 0 .6-.3.6-.2 0-.4 0-.4.3 0 .2 0 .4-.3.4-.2 0-.3 0-.3.3 0 .2-.2.4-.4.4-.3 0-.3 0-.3 1.5s0 1.6.3 1.6c.2 0 .4.1.4.3 0 .4 0 .4 2.6.4 2.5 0 2.6 0 2.6-.4 0-.3.1-.3 2.3-.3 1.8 0 2.3 0 2.3-.3.1-.2.4-.2 1.4-.2 1 0 1.2 0 1.3-.4 0-.3.2-.3 1.3-.3 1 0 1.2 0 1.3-.4 0-.3.2-.3 1-.3s1 0 1-.4c.2-.3.3-.3 1.1-.3s1 0 1-.4c0-.3 0-.3 1-.3.6 0 .9 0 .9-.3 0-.2.2-.2.6-.2.5 0 .6-.1.7-.4 0-.3.3-.3.7-.3.5 0 .6-.1.7-.4 0-.2.2-.3.7-.3.5 0 .6-.1.6-.4 0-.3.1-.3.7-.3s.7 0 .7-.4c0-.3.1-.3.6-.3.4 0 .6-.1.6-.3 0-.1.3-.3.6-.3.4-.1.7-.3.7-.4l.4-.3c.1 0 .3-.1.3-.3l.4-.4c.6 0 1-.1 1-.4 0-.1 0-.2.3-.2.2 0 .3-.2.3-.4s.1-.3.4-.3c.2 0 .3-.2.3-.3 0-.2.2-.3.4-.3.4 0 1.5-.8 1.5-1.2l.4-.2c.2 0 .3 0 .3-.3 0-.2.1-.4.4-.4.2 0 .3 0 .3-.3s.1-.4.5-.4c.3 0 .7-.2 1.1-.7l.8-.7c.1 0 .2 0 .2-.2 0-.1.2-.3.4-.3s.3-.2.3-.4c0-.1.2-.3.4-.3s.3-.2.3-.4.2-.3.3-.3c.2 0 .3-.1.4-.3 0-.2.2-.4.3-.4.2-.1.3-.3.3-.4 0-.2.1-.3.3-.3.3 0 .4 0 .4-.6 0-.5 0-.6.3-.6.2 0 .4-.1.4-.3 0-.3 0-.4.3-.4.2 0 .4-.1.4-.3 0-.3 0-.4.3-.4l.4-.2c0-.2 0-.3.2-.4.2 0 .3-.2.3-.3 0-.2.1-.3.3-.4.3 0 .4-.3.4-.7 0-.5 0-.6.3-.6s.4-.1.4-.4c0-.2 0-.3.2-.3.3 0 .5-.4.5-.9l.3-.4c.2 0 .4-.2.4-.3 0-.2 0-.3.2-.4.2 0 .3-.3.3-.7 0-.5 0-.6.3-.6s.4-.1.4-.6 0-.6.3-.6.4-.2.4-.7c0-.6 0-.7.3-.7s.4-.2.4-.6c0-.5 0-.6.3-.7.3 0 .4-.3.4-.7 0-.5 0-.7.3-.7.1 0 .2-.2.2-.7 0-.5 0-.7.4-.7.3 0 .3 0 .3-1 0-.8 0-.9.4-.9.3 0 .3 0 .3-1 0-.7 0-.9.4-1 .3 0 .3-.2.3-1s0-1 .4-1c.3-.1.3-.3.3-1.4 0-1 0-1.2.3-1.2.2 0 .2-.3.2-1.3 0-1.1 0-1.3.4-1.4.3-.1.3-.3.3-2.7 0-2.5 0-2.6.4-2.6.3 0 .3-.2.3-7.8 0-7.7 0-7.8-.3-7.9-.4 0-.4-.2-.4-2.4 0-2.2 0-2.4-.3-2.4s-.4 0-.4-1.6c0-1.4 0-1.7-.2-1.7s-.3-.2-.3-.7c0-1.1-.2-1.9-.5-1.9-.1 0-.2-.3-.2-1 0-.8 0-1-.3-1-.3-.1-.4-.3-.4-1s0-.9-.3-1c-.3 0-.4-.2-.4-1 0-.6 0-.8-.3-.9-.3 0-.4-.2-.4-.7 0-.5 0-.7-.3-.7l-.2-.4c0-.6-.2-1-.5-1-.1 0-.2-.2-.2-.6 0-.5 0-.6-.4-.6-.2 0-.3-.2-.3-.7 0-.4 0-.6-.4-.7-.2 0-.3-.2-.3-.7 0-.4 0-.6-.4-.6-.2 0-.3 0-.3-.4l-.2-.4c-.2 0-.3-.3-.4-.6 0-.4-.2-.6-.4-.6l-.2-.4c0-.2-.1-.3-.4-.3-.3 0-.3-.2-.3-.6 0-.5-.1-.6-.4-.7-.2 0-.3-.2-.3-.4 0-.1-.2-.3-.4-.3s-.3 0-.3-.3c0-.2-.1-.4-.3-.4-.1 0-.3-.2-.3-.6 0-.3-.2-.6-.4-.6-.1 0-.2-.1-.2-.3 0-.2-.2-.4-.4-.5-.2 0-.3-.2-.3-.3 0-.2-.2-.3-.4-.3l-.4-.3c-.1-.6-2.8-.6-3 0m-17.4 17.2c0 .4 0 .4-1.2.4-1 0-1.4 0-1.4.3l-.5.2c-.5 0-.9.2-.9.5 0 .1-.1.2-.3.2-.3 0-.4.1-.4.4 0 .2 0 .3-.5.3-.4 0-.6.1-.6.3 0 .2-.3.4-.5.5l-.3.3c0 .2-.1.3-.3.4-.3 0-.4.2-.4.6 0 .3 0 .5-.3.6-.3 0-.4.2-.4.7 0 .5 0 .6-.3.6s-.4.1-.4 1c0 .8 0 1-.3 1-.4 0-.4.2-.4 3.6s0 3.5.4 3.6c.3.1.3.3.3 1 0 .9 0 1 .4 1 .3 0 .3.1.3.6s.1.7.4.7c.2 0 .3.3.3.5s.1.3.4.3c.2 0 .3.1.3.3 0 .1.1.2.3.2l.2.4c0 .2.2.3.4.3s.3.1.3.4c0 .2.1.3.4.3.2 0 .3.1.3.3l.3.4c.2 0 .4.2.5.3.1.2.6.3 1 .4.6 0 .8.1.8.3 0 .2.8.2 4.3.2 3.7 0 4.3 0 4.3-.2s.2-.3.8-.3c.5 0 .9-.1 1-.3l.7-.4c.2-.1.3-.3.3-.4 0-.2.2-.3.5-.3.4 0 .6 0 .7-.3 0-.2.2-.4.4-.4s.3-.1.3-.3c0-.3.1-.4.4-.4.2 0 .3-.1.3-.3 0-.2.1-.4.3-.4.1 0 .3-.2.3-.6l.4-.6c.2 0 .2-.2.2-.7 0-.6 0-.7.4-.7.3 0 .3-.1.3-1.7 0-1.5 0-1.6.4-1.6.3 0 .3-.1.3-1.6 0-1.4 0-1.6-.3-1.6s-.4 0-.4-1.6 0-1.7-.3-1.7-.4 0-.4-.7c0-.5 0-.7-.2-.7s-.3-.1-.3-.4c0-.2-.1-.6-.3-.7-.2-.2-.4-.4-.4-.6 0 0-.1-.2-.3-.2-.3 0-.4-.1-.4-.3 0-.3-.1-.4-.3-.4-.3 0-.4-.1-.4-.3 0-.3-.1-.4-.3-.4-.2 0-.4-.1-.4-.3-.1-.3-.3-.4-.6-.4-.4 0-.6 0-.7-.3 0-.3-.2-.4-.7-.4-.4 0-.6 0-.6-.2s-.2-.3-1-.3c-.7 0-1 0-1-.4-.1-.3-.3-.3-2.6-.3-2.4 0-2.6 0-2.6.3m-282 16.6c0 .4-.1.4-1.9.4-1.5 0-1.9 0-2 .2 0 .2-.3.3-1 .3s-.9 0-1 .3c0 .3-.2.4-1 .4-.6 0-.8 0-.9.3 0 .3-.2.4-.8.4-.5 0-.6 0-.6.3s-.1.4-.7.4c-.4 0-.6 0-.7.3 0 .3-.2.4-.7.4-.3 0-.5 0-.5.2s-.3.3-.7.4c-.3 0-.6.2-.6.3l-.4.3-.4.4c0 .2-.2.3-.3.3-.1 0-.3.2-.3.4s0 .3-.4.3c-.6 0-1 .2-1 .5 0 .1-.1.2-.3.2-.2 0-.4 0-.4.2s-.8 1-1 1l-.2.4c0 .2-.1.3-.3.3-.3 0-.4.1-.4.4 0 .2-.1.3-.3.3-.3 0-.4.1-.4.4 0 .2 0 .3-.3.3s-.4.1-.4.4c0 .2 0 .3-.2.3s-.3.3-.4.6c0 .4-.2.6-.4.6l-.2.4c0 .2-.1.3-.3.3-.3 0-.4.2-.4.4s-.2.3-.3.4c-.3 0-.4.2-.4.6 0 .4 0 .5-.3.6-.3 0-.4.2-.4.7 0 .5 0 .6-.3.7-.3 0-.4.2-.4.6 0 .4 0 .6-.3.6-.1 0-.2.2-.2.7 0 .5 0 .7-.4.7-.3.1-.3.3-.3 1s0 .9-.4 1c-.3 0-.3.2-.3 1s0 1-.4 1c-.3.1-.3.3-.3 1.7s0 1.6-.4 1.7a46.7 46.7 0 0 0 .7 15.6c.3.2.4.5.4 1.1 0 .7 0 .9.3 1 .3 0 .4.2.4.7 0 .6 0 .7.3.7s.4.1.4.9c0 .6 0 .9.2 1 .2 0 .3.3.4.6 0 .3.2.7.4.7l.2.4c0 .6.2 1 .5 1 .1 0 .2.1.2.3 0 .2.1.3.4.3.2 0 .3.2.3.7 0 .4 0 .6.4.7l.3.3.2.4c.2 0 .3.3.4.4 0 .2.2.3.4.3.1 0 .2.2.2.5l.3.6.5.5c0 .2.2.3.3.3.2 0 .3.2.4.4 0 .2.2.3.3.3.2 0 .3.1.3.2 0 .3.7 1 1 1l.4.4c.1.2.4.4.7.4.4 0 .5 0 .5.3 0 .2.2.4.4.4s.3 0 .3.3c0 .2.1.4.3.4l.5.3c.1.2.5.4.7.4.3 0 .5 0 .5.2s.1.3.3.3c.2 0 .4.1.4.3.1.3.3.4.7.4.4 0 .6 0 .6.2 0 .3.4.5 1.3.5.6 0 .7 0 .7.3s0 .4.7.4c.4 0 .7 0 .7.2 0 .3.5.5 1.7.5.7 0 .9 0 .9.2 0 .3.3.3 1.6.3 1.5 0 1.7 0 1.7.3.1.4.3.4 6.2.4 6 0 6.1 0 6.2-.4.1-.3.3-.3 2-.3s2 0 2-.3c0-.2.2-.2 1.1-.2 1 0 1.2 0 1.5-.4.2-.2.5-.3 1.1-.3.7 0 .9 0 1-.4 0-.3.2-.3 1-.3.6 0 .8 0 .9-.4 0-.2.2-.3.8-.3.5 0 .6 0 .6-.4 0-.3.1-.3.6-.3.4 0 .7-.1.8-.3l.6-.2c.4 0 .5-.1.6-.4 0-.2.2-.3.4-.3.3 0 .3-.3.3-6v-6h-.6c-.4 0-.6.2-.6.4 0 .1-.1.2-.3.2-.1 0-.3.2-.3.4s-.3.3-.4.3c-.3 0-.4.1-.4.4 0 .2 0 .3-.3.3s-.4.1-.4.4c0 .2 0 .3-.5.3-.4 0-.6.1-.6.4 0 .2-.3.3-.5.3-.1 0-.3.1-.3.3l-.6.3c-.3 0-.6.2-.6.3l-.4.3c-.3.1-.5.3-.5.5s-.2.2-.6.2c-.5 0-.6.1-.6.4 0 .3-.1.3-1 .3-.7 0-.9 0-1 .4 0 .3-.2.3-1 .3s-1 0-1 .3c0 .2-.4.2-1.9.3-1.5 0-1.8.1-2 .3-.3.5-5.2.5-5.6 0-.3-.3-.5-.3-2-.3s-1.8-.1-1.8-.3c0-.2-.2-.3-1-.3-1 0-1 0-1-.3s-.2-.4-.7-.4c-.4 0-.6 0-.8-.3-.1-.3-.3-.4-1-.4-.8 0-.9 0-.9-.3s-.1-.4-.3-.4c-.2 0-.4 0-.4-.2s-.2-.3-.6-.4c-.4 0-.6-.2-.6-.3 0-.2-.2-.3-.3-.3-.2 0-.4-.1-.5-.3 0-.3-.2-.4-.6-.4-.4 0-.5 0-.5-.3s-.1-.4-.4-.4c-.2 0-.3-.1-.3-.3 0-.3-.1-.4-.4-.4l-.4-.3c0-.2-.2-.4-.3-.4-.2 0-.3-.1-.3-.2 0-.2-.2-.3-.4-.3s-.3-.1-.3-.4c0-.1-.1-.3-.3-.3-.1 0-.3-.3-.3-.6s-.2-.6-.3-.6c-.1 0-.3-.2-.3-.5-.1-.2-.3-.4-.5-.4-.1 0-.2-.1-.2-.3 0-.6-.2-1-.5-1-.1 0-.2 0-.2-.3 0-.2-.2-.3-.4-.3-.3 0-.3-.1-.3-.7 0-.5-.1-.7-.3-.7-.2 0-.3-.2-.3-.7 0-.8-.1-1.2-.4-1.2-.2 0-.3-.3-.3-1.3s0-1.2-.3-1.3c-.6-.1-.6-8.4 0-9 .3-.2.3-.5.3-1.3s.1-1.1.3-1.2c.2-.1.3-.5.4-1 0-.7.2-1 .3-1 .2 0 .3-.2.3-.6 0-.4 0-.6.3-.7.3 0 .4-.2.4-.7 0-.5 0-.6.3-.6s.4-.1.4-.6 0-.6.2-.6.4-.2.4-.4.2-.3.3-.3l.4-.4.3-.4c.2 0 .3-.2.3-.3 0-.2.1-.3.3-.4.2 0 .4-.2.4-.3 0-.2 0-.3.2-.3s.3-.2.4-.4c0-.2.2-.3.3-.3.2 0 1-.9 1-1 0-.2.1-.2.3-.2.3 0 .4-.2.4-.4s.1-.3.3-.3c.3 0 .4-.2.4-.4 0-.3.1-.3.6-.3l.6-.2.4-.4c.3 0 .5-.2.5-.4s.2-.3.6-.3c.5 0 .6 0 .6-.3s.1-.4.7-.4.7 0 .7-.3.1-.4 1-.4c.8 0 1 0 1-.3s0-.4 1.2-.4c1 0 1.3 0 1.3-.2s.8-.3 5.4-.3c4.7 0 5.4 0 5.5.3.1.2.4.2 1.3.2 1 0 1.2 0 1.3.4.1.3.3.3 1 .3.8 0 .9 0 .9.4 0 .3.1.3.7.3.5 0 .7.1.7.4.1.2.3.3.7.3.3 0 .5.1.6.4 0 .3.2.3.7.3.4 0 .6.1.6.3 0 .1.2.3.4.3s.3 0 .3.3c0 .2.1.4.3.4.2 0 .4.1.5.3 0 .3.2.4.6.4.4 0 .5 0 .5.3 0 .2.1.4.4.4l.4.3c0 .3.2.4.6.3h.5v-5.7c0-5.5 0-5.6-.3-5.6-.2 0-.4-.1-.4-.3 0-.3 0-.4-.6-.4-.4 0-.6 0-.6-.2s-.2-.3-.6-.3c-.6 0-.7 0-.8-.4 0-.2-.3-.3-1-.3s-.9 0-1-.4c0-.3-.2-.3-1-.3-.9 0-1 0-1-.4 0-.3-.1-.3-1-.3-.6 0-.9 0-.9-.2 0-.3-.5-.5-1.7-.5-.6 0-1 0-1-.3 0-.2-.5-.2-2-.2-1.8 0-2 0-2-.4 0-.3 0-.3-5-.3-4.8 0-4.9 0-4.9.3m59.2 0c0 .3-.1.4-1.7.4-1.3 0-1.6 0-1.6.2s-.3.3-1 .3c-.8 0-1 0-1 .3-.2.3-.3.4-1 .4-.8 0-1 0-1 .3s-.2.4-.8.4c-.5 0-.6 0-.6.3s-.2.4-.7.4c-.5 0-.6 0-.6.3s0 .4-.6.4c-.3 0-.6 0-.7.2 0 .2-.2.3-.4.4-.2 0-.4.2-.4.3 0 .2-.1.3-.5.3-.3 0-.6.1-.7.4 0 .2-.3.3-.4.3-.2 0-.3.2-.3.4s-.1.3-.3.3c-.3 0-.4.1-.4.4 0 .2 0 .3-.6.3-.4 0-.6 0-.6.3l-.3.4c-.2 0-.4.1-.4.3l-.3.3c-.2 0-.4.2-.4.3l-.3.5c-.3.1-.4.4-.4.7 0 .4 0 .5-.3.5-.2 0-.4.1-.4.3 0 .1-.1.2-.3.2-.1 0-.3.2-.3.4s-.2.3-.4.3c-.1 0-.3.2-.4.5 0 .2-.2.4-.3.4l-.2.6c0 .5 0 .6-.4.6-.2 0-.3.2-.3.4s-.1.3-.3.3c-.2 0-.4.4-.4.8 0 .2-.2.4-.4.6l-.3.8c0 .3-.1.5-.2.5-.3 0-.5.3-.5.8 0 .2-.1.4-.3.5-.2 0-.2.4-.2 1 0 .8 0 1-.4 1-.3.1-.3.3-.3 1.3 0 1.2 0 1.3-.4 1.3-.3 0-.3.1-.3 1.3 0 1 0 1.3-.3 1.5-.3.1-.3.6-.4 6.2 0 6.3 0 6.9.4 6.9.2 0 .3.3.3 1.6 0 1.4 0 1.6.3 1.6.3.1.4.3.4 1 0 .9 0 1 .3 1s.4.1.4 1c0 .7 0 1 .2 1s.3.1.3.6c0 .4 0 .6.3.7.3 0 .4.2.4.7 0 .4 0 .6.3.7.3 0 .4.2.4.6 0 .5 0 .6.3.7.3.1.4.3.4.6 0 .2.1.5.3.6l.4.5c0 .2.1.3.2.3.2 0 .3.2.4.4 0 .2.2.3.3.3.2 0 .3.3.4.6 0 .4.2.7.3.7.2 0 1 .7 1 1 .1.2.3.3.4.3.2 0 .3.2.3.4s.1.3.2.3l.5.4c0 .2.3.3.4.3.2 0 .3.2.3.3 0 .2.1.3.2.3l.5.3c.1.2.4.4.7.4.4 0 .5 0 .5.3 0 .2.1.4.3.4l.3.3c0 .2.2.4.5.4.2 0 .3 0 .3.2s.3.3.6.4c.4 0 .6.2.6.3 0 .2.3.3.7.3.6 0 .7 0 .7.3s.1.4.6.4.7 0 .7.3 0 .4.7.4c.5 0 .7 0 .7.3s0 .4.7.4c.4 0 .6 0 .6.2 0 .3.6.5 1.7.5.7 0 1 0 1 .2 0 .3.3.3 1.6.3 1.6 0 1.7 0 1.7.3 0 .4.1.4 5.5.4s5.5 0 5.6-.4c0-.3.2-.3 1.7-.3 1.4 0 1.7 0 1.7-.3 0-.2.2-.2.9-.2 1.1 0 1.7-.2 1.7-.5 0-.1.2-.2.7-.2.8 0 1.2-.2 1.2-.5 0-.1.2-.2.6-.2.5 0 .7-.1.8-.4 0-.2.2-.3.6-.3.4 0 .6-.1.7-.4 0-.2.2-.3.6-.3l.7-.2c0-.2.2-.3.4-.4.2 0 .3-.2.3-.4s.2-.2.5-.2c.4 0 .6-.1.7-.3 0-.2.3-.4.5-.4.2-.1.4-.3.4-.5 0-.1.1-.2.3-.2l.2-.4c0-.3.2-.3.6-.3.5 0 .7-.1.7-.4.1-.2.3-.3.4-.3.1 0 .3-.1.3-.3l.1-.3a4 4 0 0 0 1.3-1.1c0-.1.8-1 1-1 .2 0 .3-.4.3-.8 0-.2.2-.4.3-.4.2 0 .3-.1.4-.3 0-.2.2-.4.3-.4.2 0 .3-.1.4-.3l.3-.4c.2 0 .3-.4.3-.7 0-.3 0-.5.3-.5.3-.1.4-.3.4-.8s0-.6.3-.6c.2 0 .4-.1.4-.3 0-.1 0-.3.2-.5.2 0 .4-.5.4-1 0-.6.2-.8.4-.9.3 0 .4-.2.4-.7 0-.4 0-.6.2-.6s.3-.2.3-1c0-.7 0-1 .3-1 .3-.1.4-.3.4-1.4 0-1.1 0-1.3.3-1.4.4 0 .4-.2.4-3 0-2.7 0-2.8.3-2.9.6-.1.5-3.8 0-3.8-.3 0-.3-.5-.3-2.7 0-2.8 0-3.2-.5-3.2-.2 0-.2-.3-.2-1.3 0-1.2 0-1.4-.4-1.5-.3 0-.3-.2-.3-1 0-.5-.1-.8-.3-.9-.1 0-.2-.3-.2-.7 0-.4-.1-.6-.4-.7-.3 0-.3-.2-.3-.7 0-.4-.1-.5-.4-.5-.3 0-.3-.2-.3-.7 0-.6-.1-.7-.4-.7-.3 0-.3-.2-.3-.7 0-.4-.1-.6-.4-.7-.2 0-.3-.2-.3-.6 0-.3-.1-.5-.3-.6-.1 0-.3-.2-.3-.4l-.4-.4c-.1 0-.3 0-.3-.2s-.1-.4-.3-.4c-.2 0-.4-.2-.4-.4 0-.5-.1-.9-.4-.9a.2.2 0 0 1-.3-.2c0-.2-.1-.3-.3-.4-.2 0-.3-.2-.3-.4 0-.1-.2-.3-.4-.3s-.3-.2-.3-.3c0-.2-.2-.3-.4-.4-.2 0-.3-.2-.3-.3 0-.2-.2-.3-.3-.3l-.4-.3c0-.3-.2-.4-.7-.4-.5 0-.6 0-.6-.3 0-.2 0-.4-.2-.4s-.3-.1-.3-.3c0-.1-.1-.3-.3-.3a.7.7 0 0 1-.5-.5c0-.2-.3-.3-.7-.3-.5 0-.6 0-.6-.3s-.1-.4-.3-.4l-.4-.2c0-.2-.2-.3-.6-.3-.4 0-.6-.1-.7-.4 0-.2-.2-.3-.7-.3-.5 0-.6 0-.6-.4 0-.2-.1-.3-.6-.3-.4 0-.7-.1-.8-.4-.1-.2-.4-.3-1-.3-.7 0-1 0-1-.2 0-.4-.3-.5-1.2-.5-.4 0-.7 0-.7-.3-.1-.2-.5-.2-1.8-.2-1.5 0-1.6 0-1.6-.4 0-.3-.1-.3-5.9-.3-5.7 0-5.8 0-5.8.3m164.5 0c-.1.3-.3.4-1.7.4-1.2 0-1.5 0-1.6.2-.1.2-.4.3-1 .3-.8 0-1 0-1 .3s-.2.4-1 .4c-.6 0-.8 0-1 .3-.1.3-.3.4-.7.4-.4 0-.6 0-.6.3s-.3.4-.7.4c-.5 0-.6 0-.7.3 0 .3-.3.4-.6.4l-.6.2c0 .2-.3.3-.5.4l-.3.3c0 .2-.1.3-.4.3-.3 0-.6.2-.8.4-.1.2-.4.3-.5.3l-.3.4c0 .2-.2.3-.4.3l-.2.4c0 .2-.1.3-.4.3-.1 0-.3.1-.3.3l-.4.2c-.2 0-.3.1-.3.4 0 .2-.1.3-.4.3-.2 0-.3.1-.3.4 0 .2-.1.3-.3.3-.3 0-.4.1-.4.4 0 .2-.1.3-.3.3l-.2.4c0 .2-.1.3-.4.3-.2 0-.3.1-.3.3 0 .1-.1.2-.3.2l-.4.4-.4.5c-.2.1-.3.4-.3.7 0 .4 0 .5-.4.5-.2 0-.3.2-.3.4s-.1.3-.3.3c-.2 0-.2.2-.2.6 0 .5-.1.7-.4.7-.2 0-.3 0-.3.3 0 .2-.2.4-.4.5-.3.2-.3.4-.3 1s-.1.8-.4.8c-.2.1-.3.3-.3.7 0 .5-.1.7-.4.7-.3.1-.3.3-.3 1s0 .9-.3.9c-.2 0-.3.2-.3 1 0 .9 0 1-.3 1.1-.3.1-.4.3-.4 2 0 1.9 0 2-.3 2s-.4.1-.4 5.6 0 5.6.4 5.6c.3 0 .3 0 .3 1.6s0 1.7.4 1.7c.3 0 .3.1.3 1.3 0 1 .1 1.3.3 1.3.2 0 .3.2.3.6 0 .8.2 1.3.4 1.3s.3.2.3.7c0 .4 0 .6.3.7.3 0 .4.2.4.7 0 .4 0 .6.3.7.3 0 .4.2.4.6 0 .3 0 .5.3.6.2 0 .4.2.4.4s0 .3.2.3l.4.6c0 .4.2.7.2.7l.4.4c0 .2.3.4.4.4.2 0 .3.2.3.4s.1.3.3.3c.3 0 .4.1.4.6 0 .4 0 .5.3.6.2 0 .4.2.4.3l.3.4.4.2c0 .2.8 1 1 1l.2.4c.1.3.3.4.8.4s.6 0 .6.3l.2.4c.2 0 .3.1.4.3 0 .2.2.4.3.4.2 0 .3.1.4.3 0 .3.2.4.7.4.5 0 .6 0 .6.3 0 .2.1.4.4.4.2 0 .3 0 .3.2s.2.3.6.3c.5 0 .6 0 .6.3s.1.4.7.4.7 0 .7.3.1.4.6.4.7 0 .7.3c.1.3.3.4 1 .4.9 0 1 0 1 .3.2.3.3.4 1 .4s1 0 1 .2c0 .3.3.3 1.6.3 1.5 0 1.6 0 1.7.3.1.4.3.4 5.7.4 5.3 0 5.5 0 5.6-.4 0-.3.2-.3 1.6-.3 1.2 0 1.6 0 1.7-.3 0-.2.4-.2 1.1-.2.8 0 1.1-.1 1.4-.4.2-.2.6-.3 1.1-.3.7 0 .9 0 1-.4 0-.2.2-.3.6-.3.5 0 .7-.1.7-.4 0-.2.3-.3.7-.3.5 0 .6 0 .6-.4 0-.2.1-.3.6-.3l.7-.2.5-.4c.2 0 .3-.2.3-.4s.2-.2.6-.2c.5 0 .6-.1.6-.4 0-.2.1-.3.4-.3.2 0 .3-.2.3-.4 0-.3.1-.3.5-.3s.6-.2.8-.4c0-.2.3-.3.4-.3.1 0 .2-.1.2-.3l.3-.3c.2 0 .3-.1.4-.3 0-.2.2-.4.3-.4.2 0 .3-.1.4-.3 0-.2.2-.4.3-.4.2 0 .3-.1.4-.3 0-.2.2-.3.3-.3l.4-.4c0-.1.3-.5.7-.8.3-.4.5-.7.5-1 0-.4.1-.5.4-.5.2 0 .3 0 .3-.3 0-.2.2-.4.4-.4s.3-.3.3-.6c0-.4.1-.6.4-.6.2 0 .3-.3.3-.5s.1-.4.3-.4c.1 0 .3-.2.4-.6 0-.3.2-.6.3-.7.2 0 .3-.3.3-.6 0-.4 0-.6.3-.6.3-.1.4-.3.4-1 0-.9 0-1 .3-1s.4-.1.4-.7c0-.5 0-.7.2-.7.3 0 .5-.4.5-1.5 0-.7 0-1 .3-1.2.2-.2.3-.6.3-2.4 0-1.6.1-2 .3-2.2.4-.1.4-7.2 0-7.2-.2 0-.3-.3-.3-2.2 0-2 0-2.2-.3-2.4-.3-.1-.3-.4-.3-1.4 0-1 0-1.2-.4-1.3-.3 0-.3-.2-.3-1s0-1-.4-1c-.3 0-.3 0-.3-.8s-.1-1-.4-1c-.3 0-.3-.2-.3-.7 0-.3-.1-.6-.3-.7-.1 0-.3-.3-.3-.7l-.3-.6-.4-.4c0-.2-.3-.4-.4-.4-.2 0-.3-.2-.3-.6 0-.4 0-.5-.3-.6-.2 0-.4-.2-.4-.4s0-.4-.3-.4c-.2 0-.4 0-.4-.3 0-.2 0-.4-.2-.4s-.3-.1-.3-.3c0-.2-.1-.5-.3-.7-.2-.1-.4-.4-.4-.6l-.4-.3a.3.3 0 0 1-.3-.3c0-.1-.1-.3-.3-.3-.2 0-.4-.2-.4-.4 0-.1-.1-.3-.3-.3-.2 0-.4-.2-.4-.3 0-.2-.7-1-1-1l-.3-.3c-.2-.3-.4-.4-.8-.4s-.5 0-.5-.3-.1-.4-.3-.4c-.3 0-.4-.1-.4-.3 0-.3-.1-.4-.3-.4l-.4-.2c0-.2-.2-.3-.6-.4-.3 0-.6-.2-.6-.4 0-.1-.2-.2-.7-.2-.6 0-.7 0-.7-.4 0-.2-.1-.3-.6-.3s-.6 0-.6-.4c0-.2-.1-.3-.7-.3-.5 0-.7 0-.8-.4 0-.2-.2-.3-1-.3-.7 0-.8 0-.9-.4 0-.2-.2-.3-1-.3s-1 0-1-.3c0-.2-.3-.2-1.7-.2-1.5 0-1.7 0-1.7-.4 0-.3 0-.3-5.8-.3-5.7 0-5.8 0-6 .3m-118 32.1v31.8h10.5v-27.2h1.4c1.3 0 1.4 0 1.4.3s0 .4.9.4c.7 0 1 0 1.1.3.2.2.4.4.8.4s.5 0 .5.3c0 .2 0 .4.2.4 0 0 .4.2.7.6l.8.6c.1 0 .2.1.2.3l.3.3c.2 0 .4.3.5.5l.3.3c.2 0 .3 0 .3.2l.6.8.6.7.4.2c.2 0 .3.1.3.4 0 .2.1.3.4.3.3 0 .3.1.3.6s.1.7.4.8c.2 0 .3.2.3.3 0 .1.1.3.3.3l.2.5c0 .1.2.5.4.6.2.2.3.5.3.7l.4.2c.3 0 .3.1.3.6s.1.7.4.8c.2 0 .3.2.3.6 0 .3.1.5.4.6.2 0 .3.2.3.7l.2.6.4.4c0 .2.2.4.4.4s.3.2.3.6c0 .5 0 .7.3.7s.3 0 .3.6c0 .5.1.6.4.7.3 0 .3.2.3.6 0 .4.1.6.4.6.2 0 .3.3.3.4 0 .2.2.4.3.4.1 0 .3.2.3.6l.3.6.4.4c0 .3.3.5.4.5.1 0 .3.1.3.3 0 .5.2.9.4.9s.3.1.3.3c0 .3 0 .4.3.4s.4.1.4.6c0 .4 0 .7.2.7l.3.4c0 .2.3.4.4.4.2 0 .3 0 .3.2 0 .3.8.3 6 .3h5.9v-.9c0-.5-.1-.8-.2-.8s-.3-.2-.4-.5c0-.2-.3-.4-.4-.4-.2 0-.3-.2-.3-.5 0-.2-.1-.5-.3-.6l-.4-.5c0-.2-.1-.3-.3-.3-.3 0-.4-.2-.4-.4s0-.3-.3-.3-.4-.2-.4-.6c0-.5 0-.7-.2-.7s-.3-.1-.3-.3c0-.2-.1-.4-.3-.4-.3 0-.4 0-.4-.6 0-.5 0-.6-.3-.7-.3 0-.4-.2-.4-.6 0-.4 0-.6-.3-.6-.2 0-.4-.3-.4-.4 0-.3-.1-.4-.3-.4-.3 0-.4 0-.4-.7 0-.5 0-.7-.2-.7s-.3-.1-.3-.3c0-.5-.2-.9-.5-.9l-.2-.4c0-.3-.2-.6-.4-.8l-.3-.6c0-.2-.2-.3-.3-.3-.3 0-.4-.1-.4-.6s0-.6-.3-.6-.4-.1-.4-.6l-.2-.7a1 1 0 0 1-.4-.5c0-.2-.2-.3-.4-.3-.1 0-.2-.2-.2-.5 0-.4-.1-.6-.4-.7-.2 0-.3-.2-.3-.4s-.1-.3-.4-.3c-.2 0-.3-.1-.3-.6s-.1-.7-.4-.8c-.2 0-.3-.2-.3-.4s-.1-.3-.3-.3c-.2 0-.2-.2-.2-.6 0-.3-.1-.5-.4-.6-.2 0-.3-.2-.3-.4s-.2-.3-.4-.3c-.3 0-.3-.1-.3-.6 0-.4-.1-.5-.4-.6-.2 0-.3-.2-.3-.4s-.2-.4-.4-.4-.3 0-.3-.3c0-.2-.1-.3-.3-.3l-.3-.3c0-.2-.1-.3-.3-.4-.2 0-.3-.2-.3-.4s-.2-.3-.4-.3-.3-.2-.3-.3c0-.2-.2-.3-.4-.4-.2 0-.3-.2-.3-.3 0-.2-.2-.3-.4-.3-.3 0-.3 0-.3-.4s0-.4.7-.4c.5 0 .7-.1.7-.3 0-.2.1-.3.5-.3.3 0 .6 0 .7-.3.1-.2.3-.4.5-.4 0 0 .2-.1.2-.3 0-.3 0-.4.5-.4.3 0 .6 0 .7-.3.2-.2.3-.4.5-.4l.3-.3c0-.2.2-.4.3-.4.2 0 .3-.2.4-.6 0-.3.2-.6.3-.6.2 0 .3-.1.3-.3 0-.3.1-.4.3-.4.3 0 .4 0 .4-.7 0-.6 0-.7.3-.7s.4 0 .4-.5c0-.4.1-.7.3-.8.3-.2.4-.4.4-1.3 0-1 0-1.2.3-1.3.4-.3.4-.5.4-4.3s0-4-.4-4.2c-.3-.2-.3-.4-.3-1.4 0-1 0-1.2-.4-1.3-.3 0-.3-.2-.3-1 0-.6 0-.8-.4-.9-.2 0-.3-.3-.3-.4 0-.3-.1-.4-.4-.4-.2 0-.3 0-.3-.6 0-.4-.1-.6-.3-.7l-.2-.3c0-.2-.2-.3-.4-.3s-.3-.1-.3-.3c0-.3-.2-.4-.4-.4s-.3-.1-.3-.3c0-.3-.1-.4-.4-.4-.2 0-.3-.1-.3-.3 0-.3-.1-.4-.4-.4-.2 0-.3-.1-.3-.3 0-.2-.1-.4-.3-.4a.4.4 0 0 1-.4-.2c0-.2-.3-.3-.7-.3-.4 0-.5 0-.5-.4 0-.2-.2-.3-.7-.3-.6 0-.7 0-.7-.4 0-.2-.2-.3-.6-.3-.4 0-.7-.1-.8-.4-.2-.2-.4-.3-1-.3s-.9 0-1-.3c-.2-.3-.6-.3-2-.4a47.3 47.3 0 0 0-11.5-.5h-9.5v31.7M214.7 73v63.2h5.2l5.2.1v-29.1h22v-10h-22v-14h22V72.8H231c-12.8 0-16.2 0-16.3.2m-88.1 9.3c0 .2.4.2 1.3.2 1.1 0 1.2 0 1.2.4 0 .3.2.3.6.3.5 0 .6.1.7.4 0 .3.3.3.7.3.5 0 .7.1.7.4 0 .3 0 .3.6.3.4 0 .6.1.6.4 0 .2.3.3.4.3.2 0 .3.2.3.3 0 .1.1.3.3.3.2 0 .4 0 .4.2s.1.3.3.4c.2 0 .4.2.4.4s.2.4.4.4.3 0 .3.2l.3.4c.2 0 .4.2.4.3 0 .2 0 .3.2.3s.3.1.4.3c0 .2.2.4.3.4.2 0 .3.1.3.3 0 .3.1.4.3.4.3 0 .4 0 .4.3s.1.4.3.4c.3 0 .4 0 .4.6 0 .4 0 .6.3.6.1 0 .2.1.2.3 0 .1.2.3.4.3.2.1.3.3.3.8 0 .6 0 .7.4.7.2 0 .3.1.3.6s0 .7.4.7c.3.1.3.3.3 1 0 .9 0 1 .4 1 .3 0 .3.1.3 1.3 0 1 0 1.3.3 1.3.2 0 .2.7.2 4.7 0 4.1 0 4.8-.2 4.8s-.3.2-.3 1.3c0 1.2 0 1.3-.3 1.3s-.4 0-.4 1c0 .7 0 .9-.3 1-.3 0-.4.2-.4.6 0 .5 0 .7-.3.7-.3.1-.4.3-.4.7 0 .5 0 .7-.3.7-.3.1-.4.3-.4.7 0 .3 0 .5-.2.5s-.3.2-.3.4-.1.3-.4.3c-.2 0-.3.1-.3.3 0 .2-.2.4-.4.4-.2.1-.3.3-.3.7 0 .3-.1.5-.4.6l-.3.3c0 .2-.2.3-.4.4l-.3.3c0 .2-.1.3-.3.3l-.2.4c0 .2-.1.3-.4.3-.2 0-.3.1-.3.4 0 .2-.1.3-.6.3-.3 0-.7.2-1 .6-.4.4-.8.6-1 .6-.4 0-.7.2-.7.5l-.4.2c-.2 0-.3.1-.3.4 0 .3-.2.3-1 .3-.7 0-.8 0-1 .4 0 .3-.1.3-.7.3-.5 0-.7.1-.7.3 0 .2-.2.3-1.5.3-1.5 0-1.6 0-1.7.3-.1.3-.3.3-2.8.3s-2.6 0-2.7-.3c-.1-.3-.3-.3-1.3-.3s-1.3-.1-1.4-.3c0-.2-.3-.3-1-.3-.8 0-1 0-1-.3-.1-.3-.3-.4-.6-.4s-.6-.1-.7-.3c-.2-.2-.5-.4-.8-.4-.3 0-.5 0-.5-.2 0-.3-.4-.5-.9-.5-.2 0-.3 0-.3-.2s-.2-.4-.3-.4a1 1 0 0 1-.5-.4l-.4-.2-.3-.3c0-.3-.2-.4-.6-.4-.4 0-.5 0-.5-.3s-.2-.4-.4-.4-.3-.1-.3-.3c0-.3-.2-.4-.4-.4-.3 0-.3-.1-.3-.5s-.1-.6-.4-.7c-.2 0-.3-.2-.3-.4s-.2-.3-.4-.3-.3-.1-.3-.4c0-.1-.1-.3-.3-.3-.1 0-.3-.3-.3-.6-.1-.4-.3-.6-.4-.6-.1 0-.3-.2-.3-.4s0-.3-.3-.3-.4-.1-.4-.7 0-.7-.3-.7-.4-.1-.4-1c0-.8 0-1-.3-1s-.4 0-.4-1c0-.8 0-1-.2-1s-.3-.3-.3-1.4c0-1.7-.1-2.5-.4-2.5-.5 0-.4-5.2 0-5.5.4-.2.4-.4.4-1.8 0-1.3 0-1.6.3-1.6.2 0 .2-.2.2-1.3 0-1.2 0-1.3.4-1.3.3 0 .3-.1.3-.6 0-.4.1-.6.4-.7.3 0 .3-.2.3-.7 0-.4.1-.6.4-.7.2 0 .3-.2.3-.5s.3-.7.7-1c.4-.5.6-.8.6-1.2 0-.4 0-.5.3-.5.2 0 .4-.1.4-.4 0-.2 0-.3.3-.3l.4-.2c0-.1.2-.5.6-.8l.6-.8.3-.1c.3 0 .4-.2.4-.4s0-.3.3-.3.4-.2.4-.4 0-.3.3-.3c.2 0 .4-.1.4-.3 0-.1.2-.3.6-.3l.6-.4.3-.3c.3 0 .4 0 .4-.3s.1-.4.7-.4.7 0 .7-.3.1-.4.9-.4c.7 0 .9 0 1-.3 0-.3.2-.4 1-.4.9 0 1.1 0 1.1-.2s.6-.3 4.7-.3c4 0 4.7 0 4.8.3m165 0c0 .2.2.2 1 .2s1 0 1 .4c0 .3 0 .3.6.3s.7.1.8.4c0 .2.2.3.6.3.4 0 .6.2.7.4.2.2.4.3.7.3.4 0 .5.1.6.4 0 .2.2.3.4.3l.3.3c0 .1.1.3.3.3.2 0 .4.1.4.3 0 .3.2.4.6.4.5 0 .6 0 .6.3 0 .2 0 .4.3.4s.4 0 .4.3c0 .2 0 .4.3.4s.4 0 .4.3c0 .2 0 .4.3.4s.4 0 .4.5c0 .3 0 .6.2.6s.3.3.4.4c0 .2.2.4.3.4.2 0 .3.1.3.3 0 .3.1.4.3.4.3 0 .4 0 .4.6 0 .5 0 .6.3.6s.4.1.4.6 0 .7.3.7c.3.1.4.3.4.7 0 .3 0 .6.2.7.2 0 .3.4.4.9 0 .5.2 1 .3 1 .2.2.3.5.3 1.1 0 .8 0 1 .4 1 .3 0 .3 0 .3 5.3s0 5.4-.3 5.4-.4.2-.4 1c0 .6 0 .9-.3 1-.1.2-.3.6-.3 1-.1.6-.2 1-.4 1l-.2.7c0 .4-.1.6-.3.6-.2 0-.4.4-.4 1 0 .3-.1.4-.4.4-.2 0-.3.1-.3.6 0 .4-.1.6-.4.7-.2 0-.3.2-.3.3l-.3.4c-.1 0-.3.3-.3.7-.1.3-.2.6-.4.6l-.2.2c0 .2-.2.3-.4.4-.2 0-.3.2-.3.3 0 .2-.2.3-.4.3s-.3.1-.3.4c0 .2-.1.3-.4.3-.2 0-.3.1-.3.4 0 .2-.1.3-.4.3-.2 0-.3.1-.3.4 0 .2-.1.3-.3.3-.1 0-.2.1-.2.3l-.7.3c-.5 0-.7.2-.7.4l-.4.2c-.2 0-.3.1-.3.4 0 .3-.2.3-.7.3-.4 0-.6.1-.6.4 0 .3 0 .3-.7.3-.5 0-.7 0-.7.4 0 .3 0 .3-1 .3-.7 0-.9 0-.9.3 0 .2-.3.3-1.6.3-1.4 0-1.6 0-1.6.3-.2.4-5 .6-5 .1 0-.3-.7-.4-2.1-.4-.8 0-1-.1-1.1-.3-.1-.2-.4-.3-1-.3-.9 0-1 0-1-.3s-.1-.4-.7-.4c-.5 0-.7 0-.8-.3 0-.3-.2-.4-.6-.4-.3 0-.5 0-.6-.3 0-.3-.2-.4-.6-.4-.4 0-.6 0-.6-.2s0-.4-.3-.4a1 1 0 0 1-.4-.4l-.4-.2c-.1 0-.3-.1-.3-.3l-.3-.4c-.2 0-1-.8-1-1l-.4-.3c-.2 0-.3-.2-.3-.4l-.3-.2-.4-.4-.3-.3c-.2 0-.3-.2-.3-.4s0-.3-.3-.3-.4-.1-.4-.4c0-.2 0-.3-.3-.3s-.4-.1-.4-.6c0-.4 0-.7-.2-.7s-.3-.4-.4-.6c0-.3-.2-.6-.3-.7-.2 0-.3-.2-.3-.5 0-.2-.1-.5-.3-.7-.2-.2-.4-.6-.4-1 0-.3 0-.4-.3-.4-.4 0-.4-.2-.4-1.3 0-1.2 0-1.3-.3-1.4-.4 0-.4-.2-.4-2.3 0-1.8 0-2.2-.2-2.3-.2 0-.3-.4-.3-1.5 0-1 0-1.4.3-1.4.2 0 .2-.3.2-2.2 0-2.1 0-2.3.4-2.3.3-.1.3-.3.3-1 0-.9 0-1 .4-1.1.3-.1.3-.3.3-1s0-.9.4-1c.2 0 .3-.2.3-.7 0-.4.1-.6.4-.7.2 0 .3-.2.3-.6 0-.4.1-.5.3-.5l.2-.4c0-.2.2-.4.4-.5.2-.1.3-.4.3-.7 0-.4.1-.5.4-.5.2 0 .3-.1.3-.4 0-.2.1-.3.3-.3l.7-.6c.3-.4.7-.6.8-.6l.2-.4c0-.2 0-.3.3-.3.2 0 .3-.2.3-.4s.2-.3.4-.3.3-.2.3-.4.2-.3.4-.3.3-.1.3-.3c0-.1.3-.3.7-.3l.6-.4c0-.2.1-.3.4-.3.2 0 .6-.1.7-.3l.7-.4c.1 0 .3-.2.3-.4s.2-.3.9-.3.9 0 1-.3c0-.3.2-.4 1-.4.6 0 1 0 1-.2.1-.2.8-.3 5-.3 4.4 0 5 0 5 .3m-112 .6c.1.3.3.3 1.6.3s1.5 0 1.5.3c0 .2.2.3.3.4.2 0 .5.2.6.4.2.2.6.3.8.3.3 0 .4.1.4.3 0 .2.2.3.4.4.2 0 .3.2.3.3 0 .2.1.3.3.3.2 0 .2.1.2.6s.1.6.4.7c.3 0 .3.2.3 1 0 .9 0 1 .4 1 .3 0 .3.1.3 1.7 0 1.7 0 1.8-.3 1.8s-.4 0-.4 1c0 .7 0 .9-.2.9s-.4.1-.4.3c0 .2-.2.4-.3.5-.2 0-.3.3-.3.6 0 .4 0 .5-.3.5s-.4.1-.4.3c0 .3-.2.4-.6.5-.3 0-.6.2-.6.3l-.4.3c-.3.1-.5.3-.5.4 0 .3-.3.3-1.5.3-1.3 0-1.5 0-1.6.4 0 .3-.2.3-3.4.3h-3.4V82.5h3.4c3.2 0 3.3 0 3.4.4"/>
    <path fill="#e3343c" d="M159.3 12.5V25h79.3c43.6 0 79.5-.1 79.7-.2h.4V0H159.3v12.5"/>
  </g>
  <path fill="#fff" d="M50.8 135a28 28 0 0 1-16.7-14.4c-8.3-17.1-2.7-36.5 12.7-44.4a48.4 48.4 0 0 1 29.5-.8c4.3 1.5 5 2.5 5.4 7l.4 5.2-4.6-2.9c-6.8-4.1-20.2-4-26.6.4-8.3 5.5-11.5 11.8-10.9 20.8.7 9.8 4.5 15.5 13.2 19.7 7.8 3.8 18 3.1 24.6-1.5l4.2-3v5.4c0 4.9-.5 5.7-4.6 7.2a49.2 49.2 0 0 1-26.6 1.3zM112.6 135.5a31.9 31.9 0 0 1-17.6-14c-3.3-5.6-3.9-8-3.8-17 0-11.6 1.7-16.3 8.6-23.2 5.7-5.8 11.7-7.9 22.3-7.9 19.2 0 30.6 11.5 30.6 30.9 0 10.6-1.3 14.6-6.7 21a35.3 35.3 0 0 1-33.4 10.2zm18.2-9.5c14.6-6.9 17.1-27.8 4.7-39-5-4.5-6.5-5.1-13-5.1-9.3 0-15.5 3.5-19.3 11.1-10.3 20 8.3 42.2 27.6 33zM162.3 104.4v-31h10.9c12 0 17.9 2.5 22.3 9.1 3.7 5.8 2 16-3.6 20.6-4.3 3.6-4.3 3.7-1.5 6.2 1.5 1.4 4.8 5.8 7.2 9.8l7.1 11c3.5 5.1 3.4 5.3-2.7 5.3-5.1 0-5.6-.4-10.7-9-6-10.5-13-17.8-16.6-17.8-2.3 0-2.6 1.4-2.6 13.4v13.4h-9.8zm20.1-5.8c4-2.2 5.2-4 5.2-8.5 0-4.7-2.7-6.9-9.8-7.8l-5.7-.8v9.3c0 9.1.1 9.4 3.6 9.4 2 0 5-.7 6.7-1.6zM215.8 104.4v-31h31v9.9h-22.6v14h22.6v8.4l-11 .4-10.9.4-.4 14.5-.4 14.4h-8.3zM276 134.9c-13.1-4.9-19.3-13-20.4-26.7-1-11.2 1.2-17.9 7.8-25.2 7.1-8 11.2-9.6 23.3-9.6 9.4 0 11.1.5 17.3 4.6a33 33 0 0 1 5.6 48.7A34.8 34.8 0 0 1 276 135zm22.6-10.6c5.7-4 10.6-14.8 9.7-21.4-1.8-13.5-9.6-21-21.7-21-12.8 0-21.5 9.2-21.5 23 0 10 5.3 18.3 14 22a24 24 0 0 0 19.5-2.6z"/>
  <path fill="#fff" d="M317.2 135.9c0-.5 1.8-3.9 4.1-7.4a44.7 44.7 0 0 0-.6-48.6c-2-2.8-3.5-5.5-3.5-5.8 0-1.8 3.4-.2 9.2 4.3 17.1 13 35.4-.3 32.5-23.7l-1.7-12.3-.7-4.9 5 5.6c7.7 8.5 11.1 21.4 10.3 38.6a47 47 0 0 1-5 22.9 55.6 55.6 0 0 1-37.9 30.1c-8.9 2.3-11.7 2.6-11.7 1.2z"/>
  <path fill="#fff" d="M333.3 75.6c-4.3-4.3-4.5-10.3-.5-15.4 6-7.7 19.6-2.5 19.6 7.6 0 5.8-5.5 11.3-11.3 11.3-2.7 0-5.6-1.3-7.8-3.5z"/>
</svg>
